<svg width="83" height="10" viewBox="0 0 83 10" fill="none" xmlns="http://www.w3.org/2000/svg">
<g clip-path="url(#clip0)">
<path d="M83.4 0C79.5 0 77.5 2.3 75.7 4.3C74 6.3 72.5 8 69.5 8C66.5 8 65 6.3 63.3 4.3C61.6 2.3 59.6 0 55.6 0C51.7 0 49.7 2.3 47.9 4.3C46.2 6.3 44.7 8 41.7 8C38.7 8 37.2 6.3 35.5 4.3C33.7 2.3 31.7 0 27.8 0C23.9 0 21.9 2.3 20.1 4.3C18.4 6.3 16.9 8 13.9 8C10.9 8 9.4 6.3 7.7 4.3C5.9 2.3 3.9 0 -4.76837e-07 0C-0.265217 0 -0.519571 0.105356 -0.707107 0.292892C-0.894643 0.480429 -1 0.734784 -1 1C-1 1.26522 -0.894643 1.51957 -0.707107 1.70711C-0.519571 1.89464 -0.265217 2 -4.76837e-07 2C3 2 4.5 3.7 6.2 5.7C8 7.7 10 10 13.9 10C17.8 10 19.8 7.7 21.6 5.7C23.3 3.7 24.8 2 27.8 2C30.8 2 32.3 3.7 34 5.7C35.8 7.7 37.8 10 41.7 10C45.6 10 47.6 7.7 49.4 5.7C51.1 3.7 52.6 2 55.6 2C58.6 2 60.1 3.7 61.8 5.7C63.6 7.7 65.6 10 69.5 10C73.4 10 75.4 7.7 77.2 5.7C78.9 3.7 80.4 2 83.4 2C83.6652 2 83.9196 1.89464 84.1071 1.70711C84.2946 1.51957 84.4 1.26522 84.4 1C84.4 0.734784 84.2946 0.480429 84.1071 0.292892C83.9196 0.105356 83.6652 0 83.4 0V0Z" fill="#EBEBEB"/>
</g>
<defs>
<clipPath id="clip0">
<rect width="85.4" height="10" fill="white" transform="translate(-1)"/>
</clipPath>
</defs>
</svg>
