<svg xmlns="http://www.w3.org/2000/svg" width="500.79" height="369.509" viewBox="0 0 500.79 369.509">
  <g id="blob-shape" transform="translate(-349.185 -228.221)">
    <path id="Path_1" data-name="Path 1" d="M98.9-143.6c42,16.6,97.6,22.6,127,51,29.5,28.5,33,79.4,23.1,126.4s-33.1,90.1-68.6,111.8-83.3,22-123.3,21.2c-40.1-.8-72.4-2.7-116.3.2-43.8,2.9-99.3,10.6-128.9-11-29.7-21.6-33.6-72.6-43.3-124.2S-256.5-72-238.5-107.8c18.1-35.9,69.6-55.3,115-70.4,45.3-15.2,84.4-26,118.2-17.7S56.9-160.3,98.9-143.6Z" transform="translate(596 427)" fill="#fff07c"/>
  </g>
</svg>
