<svg xmlns="http://www.w3.org/2000/svg" width="85.4" height="10" viewBox="0 0 85.4 10">
  <g id="Group_21" data-name="Group 21" transform="translate(-7.4 -45)">
    <path id="Path_2" data-name="Path 2" d="M91.8,45c-3.9,0-5.9,2.3-7.7,4.3-1.7,2-3.2,3.7-6.2,3.7s-4.5-1.7-6.2-3.7S68,45,64,45c-3.9,0-5.9,2.3-7.7,4.3-1.7,2-3.2,3.7-6.2,3.7s-4.5-1.7-6.2-3.7c-1.8-2-3.8-4.3-7.7-4.3s-5.9,2.3-7.7,4.3c-1.7,2-3.2,3.7-6.2,3.7s-4.5-1.7-6.2-3.7c-1.8-2-3.8-4.3-7.7-4.3a1,1,0,0,0,0,2c3,0,4.5,1.7,6.2,3.7,1.8,2,3.8,4.3,7.7,4.3s5.9-2.3,7.7-4.3c1.7-2,3.2-3.7,6.2-3.7s4.5,1.7,6.2,3.7c1.8,2,3.8,4.3,7.7,4.3s5.9-2.3,7.7-4.3C59.5,48.7,61,47,64,47s4.5,1.7,6.2,3.7C72,52.7,74,55,77.9,55s5.9-2.3,7.7-4.3c1.7-2,3.2-3.7,6.2-3.7a1,1,0,0,0,0-2Z" fill="#ebebeb"/>
  </g>
</svg>
